Simulation
nRows=16
nColumns=15
endheader
time  TH_x TH_y TH_z SC_y  SC_z  SC_x  AC_y  AC_z  AC_x  GH_y  GH_z  GH_yy  EL_x  PS_y
8.6175  0.000000  0.000000  0.000000  -38.12230181295426  -1.7116495452411793  -8.314462047329268  46.167616900862214  12.700093722811586  4.175846660928938  26.78826131172384  3.6029964907630867  -13.01812656929963  20.575102673148532  120.000000
8.67495  0.000000  0.000000  0.000000  -37.89322612073538  -1.8484827323670312  -8.974851534172316  45.53743785047918  13.034356931762778  4.082178970930671  32.77191374755556  4.400763102414838  -18.854265615260374  20.505520831332696  120.000000
8.7324  0.000000  0.000000  0.000000  -37.61299221551968  -1.9824843989915006  -9.596516984371553  45.0828780805508  13.3393360698674  4.075657263390122  39.75814585630441  5.491334027801369  -25.620127704967615  20.613666670984415  120.000000
8.78985  0.000000  0.000000  0.000000  -37.306613087833064  -2.060834055947171  -10.111906685654834  44.83778740898086  13.626879586985327  4.173980717131266  46.89672338879474  6.9395927974221605  -32.53332290890228  20.88102244328764  120.000000
8.8473  0.000000  0.000000  0.000000  -37.008185479314285  -2.020369438537744  -10.451425077992576  44.79240323294032  13.915778356641422  4.398037885032132  53.5640531849169  8.774662034179833  -39.0711736672785  21.24224964352614  120.000000
8.90475  0.000000  0.000000  0.000000  -36.749571778461956  -1.8019354763641782  -10.55165139364708  44.912298074939294  14.217791205348183  4.7697070403520705  59.52599440478487  10.984809634134582  -45.10578437561712  21.6185162899012  120.000000
8.9622  0.000000  0.000000  0.000000  -36.554861240158424  -1.3418620331443287  -10.358801371553326  45.16418308539286  14.53485640771524  5.2999390464307  64.77295256027563  13.536482646332265  -50.716863345484  21.94719613646325  120.000000
9.01965  0.000000  0.000000  0.000000  -36.44298697945142  -0.5867150992842892  -9.829345190188747  45.52663198494175  14.857830219470598  5.984212067467839  69.35156181061248  16.38476370524692  -56.008837165374004  22.193958606969893  120.000000
9.0771  0.000000  0.000000  0.000000  -36.43234745989688  0.49619876444795874  -8.925066358477348  45.98935583603052  15.164443532047873  6.812398811356474  73.31277308753135  19.4792286186883  -61.05362409941033  22.35053119290731  120.000000
9.13455  0.000000  0.000000  0.000000  -36.552107935770195  1.9160853313307142  -7.605780646187344  46.54441318862799  15.427623211152117  7.774455114948466  76.67671124938214  22.764718906815325  -65.85732130347795  22.421971188481475  120.000000
9.192  0.000000  0.000000  0.000000  -36.84757263632986  3.65722138825671  -5.8271720517411545  47.180411121401384  15.622328020839515  8.860167797519264  79.44312540136089  26.176321617549892  -70.37671108509706  22.412218522109907  120.000000
9.24945  0.000000  0.000000  0.000000  -37.375707468683736  5.676789049756022  -3.5426543840900933  47.88192343995357  15.726832059150409  10.060825974474357  81.62056662575351  29.637889847169138  -74.5543805240592  22.31640977440371  120.000000
9.3069  0.000000  0.000000  0.000000  -38.19401808971545  7.903783306719725  -0.710937760546138  48.6340342522252  15.723193054833079  11.368535901435795  83.24275095825337  33.06717046186077  -78.342464965063  22.12277487921931  120.000000
9.36435  0.000000  0.000000  0.000000  -39.350439705145796  10.236866335141832  2.690503506936506  49.423296760800795  15.59612268752318  12.776294931003163  84.36548760710346  36.383773378899946  -81.70847871717592  21.82061738537194  120.000000
9.421800000000001  0.000000  0.000000  0.000000  -40.87505053164325  12.547559809122205  6.649658912504321  50.23416446485472  15.332692981364495  14.274180093875998  85.0544524935543  39.51266437131563  -84.6350610348541  21.410920700069205  120.000000
9.47925  0.000000  0.000000  0.000000  -42.77438089254301  14.697333356520739  11.104017363137828  51.05173905686053  14.925867870340383  15.837770054085297  85.36934687052258  42.39144450682689  -87.11533241686135  20.915137162011757  120.000000
